<svg xmlns="http://www.w3.org/2000/svg" viewBox="0 0 1920 1080"><defs><style>.cls-1{isolation:isolate;}.cls-2{fill:#e9eef5;}.cls-14,.cls-3{mix-blend-mode:multiply;opacity:0.05;}.cls-4{fill:#64e3ed;}.cls-5{fill:#00d0e2;}.cls-6{fill:#00bcd0;}.cls-7{fill:#00a1b4;}.cls-8{fill:#2c609b;}.cls-9{fill:#0092b7;}.cls-10{fill:#006e93;}.cls-11{fill:#1b4d84;}.cls-12{fill:#154070;}.cls-13{fill:#0087b5;}</style></defs><g class="cls-1"><g id="Ebene_1" data-name="Ebene 1"><rect class="cls-2" width="1920" height="1080"/><polygon class="cls-3" points="905.161 0 603.079 0 301.654 0 0 0 0 231.64 0 344.272 0 450.169 0 584.351 0 809.026 187.499 650.31 371.1 593.528 296.589 488.425 426.793 404.495 593.512 461.476 597.839 252.747 763.963 183.733 937.874 203.642 1035.025 78.254 1207.844 168.229 1258.203 0 905.161 0"/><polygon class="cls-4" points="0 787.224 197.773 624.188 0 564.122 0 787.224"/><polygon class="cls-5" points="197.773 624.188 150.313 486.894 0 564.122 197.773 624.188"/><polygon class="cls-4" points="197.773 624.188 387.611 564.122 150.313 486.894 197.773 624.188"/><polygon class="cls-6" points="150.313 486.894 0 432.549 0 564.122 150.313 486.894"/><polygon class="cls-5" points="387.611 564.122 309.642 464.012 150.313 486.894 387.611 564.122"/><polygon class="cls-6" points="150.313 486.894 91.353 402.781 309.642 464.012 150.313 486.894"/><polygon class="cls-7" points="91.353 402.781 0 432.549 150.313 486.894 91.353 402.781"/><polygon class="cls-8" points="91.353 402.781 0 329.579 0 432.549 91.353 402.781"/><polygon class="cls-7" points="91.353 402.781 248.622 329.579 309.642 464.012 91.353 402.781"/><polygon class="cls-9" points="91.353 402.781 167.891 265.169 248.622 329.579 91.353 402.781"/><polygon class="cls-10" points="167.891 265.169 0 329.579 91.353 402.781 167.891 265.169"/><polygon class="cls-11" points="167.891 265.169 0 220.888 0 329.579 167.891 265.169"/><polygon class="cls-6" points="309.642 464.012 441.85 381.064 248.622 329.579 309.642 464.012"/><polygon class="cls-7" points="248.622 329.579 387.611 220.888 167.891 265.169 248.622 329.579"/><polygon class="cls-6" points="167.891 265.169 214.723 169.403 387.611 220.888 167.891 265.169"/><polygon class="cls-10" points="214.723 169.403 75.157 83.594 167.891 265.169 214.723 169.403"/><polygon class="cls-12" points="75.157 83.594 0 220.888 167.891 265.169 75.157 83.594"/><polygon class="cls-11" points="75.157 83.594 0 0 0 220.888 75.157 83.594"/><polygon class="cls-12" points="75.157 83.594 309.642 0 0 0 75.157 83.594"/><polygon class="cls-13" points="75.157 83.594 309.642 83.594 214.723 169.403 75.157 83.594"/><polygon class="cls-10" points="309.642 83.594 309.642 0 75.157 83.594 309.642 83.594"/><polygon class="cls-6" points="441.85 381.064 611.348 432.549 475.75 275.233 441.85 381.064"/><polygon class="cls-4" points="475.75 275.233 387.611 220.888 441.85 381.064 475.75 275.233"/><polygon class="cls-5" points="387.611 220.888 248.622 329.579 441.85 381.064 387.611 220.888"/><polygon class="cls-7" points="309.642 83.594 387.611 220.888 214.723 169.403 309.642 83.594"/><polygon class="cls-13" points="309.642 83.594 492.7 83.594 309.642 0 309.642 83.594"/><polygon class="cls-9" points="492.7 83.594 387.611 220.888 309.642 83.594 492.7 83.594"/><polygon class="cls-7" points="492.7 83.594 475.75 275.233 387.611 220.888 492.7 83.594"/><polygon class="cls-5" points="611.348 432.549 611.348 235.189 475.75 275.233 611.348 432.549"/><polygon class="cls-6" points="475.75 275.233 492.7 83.594 611.348 235.189 475.75 275.233"/><polygon class="cls-8" points="492.7 83.594 611.348 0 309.642 0 492.7 83.594"/><polygon class="cls-5" points="611.348 235.189 702.877 63.249 492.7 83.594 611.348 235.189"/><polygon class="cls-4" points="611.348 235.189 774.067 169.403 702.877 63.249 611.348 235.189"/><polygon class="cls-13" points="702.877 63.249 611.348 0 492.7 83.594 702.877 63.249"/><polygon class="cls-6" points="774.067 169.403 941.657 186.565 702.877 63.249 774.067 169.403"/><polygon class="cls-5" points="941.657 186.565 1028.314 63.249 906.275 0 941.657 186.565"/><polygon class="cls-7" points="941.657 186.565 906.275 0 702.877 63.249 941.657 186.565"/><polygon class="cls-9" points="702.877 63.249 611.348 0 906.275 0 702.877 63.249"/><polygon class="cls-5" points="1028.314 63.249 1201.202 152.241 1136.793 41.797 1028.314 63.249"/><polygon class="cls-4" points="1136.793 41.797 906.275 0 1028.314 63.249 1136.793 41.797"/><polygon class="cls-7" points="1136.793 41.797 1241.882 0 906.275 0 1136.793 41.797"/><polygon class="cls-6" points="1201.202 152.241 1241.882 0 1136.793 41.797 1201.202 152.241"/><g class="cls-14"><polygon points="671.538 288.259 692.563 427.646 863.77 455.523 807.357 311.068 671.538 288.259"/><polygon points="248.622 688.698 387.611 731.603 492.7 637.213 248.622 688.698"/><polygon points="471.76 448.556 409.357 510.039 574.649 547.946 471.76 448.556"/><polygon points="564.273 710.767 645.632 716.063 589.154 664.427 564.273 710.767"/><polygon points="122.923 745.354 183.501 791.484 176.174 721.491 122.923 745.354"/><polygon points="1022.141 248.215 1010.98 287.768 1068.071 281.174 1022.141 248.215"/><polygon points="863.77 288.259 962.549 314.077 906.072 262.441 863.77 288.259"/><polygon points="679.077 646.888 685.532 673.612 706.339 660.25 679.077 646.888"/><polygon points="91.711 843.958 112.517 830.596 85.255 817.234 91.711 843.958"/><polygon points="911.418 388.201 952.954 386.549 923.141 360.836 911.418 388.201"/><polygon points="765.222 722.756 778.128 709.37 757.18 710.156 765.222 722.756"/><polygon points="1016.674 362.017 1039.856 356.374 1018.931 345.241 1016.674 362.017"/><polygon points="1273.629 179.524 1277.322 158.886 1258.203 163.872 1273.629 179.524"/><polygon points="1144.743 232.318 1159.89 241.988 1154.048 225.839 1144.743 232.318"/><polygon points="1381.27 54.823 1386.036 74.779 1400.901 58.095 1381.27 54.823"/><polygon points="468.344 758.372 538.911 756.103 503.627 721.208 468.344 758.372"/><polygon points="263.484 768.302 309.058 798.488 294.929 755.227 263.484 768.302"/></g><polygon class="cls-6" points="671.538 275.233 692.563 414.62 863.77 442.497 671.538 275.233"/><polygon class="cls-4" points="671.538 275.233 807.357 298.042 863.77 442.497 671.538 275.233"/><polygon class="cls-5" points="248.622 675.673 492.7 624.188 387.611 718.577 248.622 675.673"/><polygon class="cls-6" points="409.357 497.013 471.76 435.53 574.649 534.92 409.357 497.013"/><polygon class="cls-5" points="564.273 697.742 589.154 651.401 645.632 703.037 564.273 697.742"/><polygon class="cls-5" points="122.923 732.328 176.174 708.466 183.501 778.458 122.923 732.328"/><polygon class="cls-5" points="1022.141 235.189 1068.071 268.148 1010.98 274.742 1022.141 235.189"/><polygon class="cls-6" points="863.77 275.233 906.072 249.415 962.549 301.051 863.77 275.233"/><polygon class="cls-4" points="679.077 633.862 706.339 647.224 685.532 660.587 679.077 633.862"/><polygon class="cls-4" points="85.255 804.208 112.517 817.57 91.711 830.932 85.255 804.208"/><polygon class="cls-5" points="952.953 373.524 911.418 375.175 923.141 347.81 952.953 373.524"/><polygon class="cls-4" points="778.128 696.345 765.222 709.73 757.18 697.131 778.128 696.345"/><polygon class="cls-4" points="1039.856 343.348 1016.674 348.991 1018.931 332.215 1039.856 343.348"/><polygon class="cls-4" points="1273.629 166.498 1258.203 150.846 1277.322 145.86 1273.629 166.498"/><polygon class="cls-4" points="1144.743 219.292 1154.048 212.813 1159.89 228.963 1144.743 219.292"/><polygon class="cls-4" points="1386.036 61.753 1381.27 41.797 1400.901 45.069 1386.036 61.753"/><polygon class="cls-4" points="503.628 708.182 538.911 743.077 468.343 745.346 503.628 708.182"/><polygon class="cls-6" points="294.929 742.201 309.058 785.462 263.484 755.276 294.929 742.201"/><polygon class="cls-3" points="1689.161 238.137 1614.023 445.902 1490.82 626.37 1490.491 758.912 1486.56 761.382 1393.279 805.858 1306.873 935.24 1095.599 873.266 1117.332 980.122 913.159 1080 1082.123 1080 1301.237 1080 1577.612 1080 1744.061 1080 1920 1080 1920 980.058 1920 801.797 1920 647.211 1920 440.556 1920 257.6 1920 175.869 1689.161 238.137"/><polygon class="cls-6" points="947.148 1080 1136.173 982.756 1114.232 1080 947.148 1080"/><polygon class="cls-7" points="1136.173 982.756 1328.573 1080 1114.232 1080 1136.173 982.756"/><polygon class="cls-5" points="1136.173 982.756 1114.232 871.683 1328.573 1080 1136.173 982.756"/><polygon class="cls-4" points="1114.232 871.683 1328.573 934.339 1328.573 1080 1114.232 871.683"/><polygon class="cls-9" points="1328.573 934.339 1490.594 1019.78 1328.573 1080 1328.573 934.339"/><polygon class="cls-10" points="1490.594 1019.78 1595.232 1080 1328.573 1080 1490.594 1019.78"/><polygon class="cls-9" points="1490.594 1019.78 1655.99 934.339 1595.232 1080 1490.594 1019.78"/><polygon class="cls-8" points="1655.99 934.339 1753.878 1080 1595.232 1080 1655.99 934.339"/><polygon class="cls-12" points="1753.878 1080 1920 982.756 1920 1080 1753.878 1080"/><polygon class="cls-11" points="1655.99 934.339 1920 982.756 1753.878 1080 1655.99 934.339"/><polygon class="cls-7" points="1655.99 934.339 1439.962 871.683 1490.594 1019.78 1655.99 934.339"/><polygon class="cls-6" points="1439.962 871.683 1328.573 934.339 1490.594 1019.78 1439.962 871.683"/><polygon class="cls-8" points="1655.99 934.339 1723.5 740.673 1920 982.756 1655.99 934.339"/><polygon class="cls-12" points="1723.5 740.673 1920 809.026 1920 982.756 1723.5 740.673"/><polygon class="cls-9" points="1655.99 934.339 1612.11 826.114 1723.5 740.673 1655.99 934.339"/><polygon class="cls-6" points="1612.11 826.114 1439.962 871.683 1655.99 934.339 1612.11 826.114"/><polygon class="cls-5" points="1439.962 871.683 1510.847 763.458 1612.11 826.114 1439.962 871.683"/><polygon class="cls-5" points="1328.573 934.339 1409.583 809.026 1439.962 871.683 1328.573 934.339"/><polygon class="cls-4" points="1405.8 811.431 1507.064 765.862 1436.179 874.087 1405.8 811.431"/><polygon class="cls-4" points="1510.847 763.458 1510.847 632.448 1612.11 826.114 1510.847 763.458"/><polygon class="cls-13" points="1612.11 826.114 1723.5 740.673 1674.555 678.572 1612.11 826.114"/><polygon class="cls-11" points="1723.5 740.673 1674.555 678.572 1920 809.026 1723.5 740.673"/><polygon class="cls-6" points="1510.847 632.448 1674.555 678.572 1612.11 826.114 1510.847 632.448"/><polygon class="cls-10" points="1674.555 678.572 1753.878 552.587 1920 658.081 1674.555 678.572"/><polygon class="cls-8" points="1920 658.081 1674.555 678.572 1920 809.026 1920 658.081"/><polygon class="cls-5" points="1510.847 632.448 1628.987 455.87 1674.555 678.572 1510.847 632.448"/><polygon class="cls-6" points="1628.987 455.87 1753.878 552.587 1674.555 678.572 1628.987 455.87"/><polygon class="cls-13" points="1753.878 552.587 1920 455.87 1920 658.081 1753.878 552.587"/><polygon class="cls-9" points="1753.878 552.587 1767.38 357.719 1920 455.87 1753.878 552.587"/><polygon class="cls-6" points="1767.38 357.719 1920 276.445 1920 455.87 1767.38 357.719"/><polygon class="cls-7" points="1767.38 357.719 1628.987 455.87 1753.878 552.587 1767.38 357.719"/><polygon class="cls-4" points="1767.38 357.719 1698.184 241.53 1920 276.445 1767.38 357.719"/><polygon class="cls-5" points="1698.184 241.53 1628.987 455.87 1767.38 357.719 1698.184 241.53"/><polygon class="cls-6" points="1698.184 241.53 1920 185.61 1920 276.445 1698.184 241.53"/><g class="cls-14"><polygon points="1408.74 581.856 1494.317 597.404 1572.448 449.423 1408.74 500.687 1408.74 581.856"/><polygon points="1281.317 882.247 1369.078 797.084 1068.664 797.084 1281.317 882.247"/><polygon points="835.986 947.891 883.98 1044.929 1028.386 996.307 932.186 898.483 835.986 947.891"/><polygon points="737.448 1053.853 818.807 1059.149 786.566 1007.513 737.448 1053.853"/><polygon points="1757.048 195.03 1786.137 177.077 1748.623 165.069 1757.048 195.03"/><polygon points="1570.424 422.844 1602.107 376.327 1520.85 366.386 1570.424 422.844"/><polygon points="1574.624 195.505 1683.35 221.964 1662.536 163.966 1574.624 195.505"/><polygon points="671.901 1020.875 692.708 1007.513 665.446 994.151 671.901 1020.875"/><polygon points="1001.141 871.652 978.908 851.057 985.788 877.733 1001.141 871.652"/><polygon points="1444.589 319.292 1411.574 319.527 1439.715 332.999 1444.589 319.292"/><polygon points="1869.224 68.377 1846.388 74.946 1867.918 85.225 1869.224 68.377"/><polygon points="1847.474 165.627 1868.139 161.023 1858.193 137.097 1847.474 165.627"/><polygon points="1616.24 321.065 1624.172 305.564 1600.047 305.286 1616.24 321.065"/><polygon points="1317.322 721.734 1281.498 728.722 1309.669 750.6 1317.322 721.734"/><polygon points="1418.471 666.092 1458.675 656.424 1429.598 628.735 1418.471 666.092"/><polygon points="1459.03 429.274 1460.466 394.022 1420.308 408.871 1459.03 429.274"/><polygon points="1405.012 764.812 1428.081 732.253 1391.085 729.397 1405.012 764.812"/><polygon points="757.602 924.903 745.518 970.877 789.789 965.55 757.602 924.903"/><polygon points="1052.969 943.37 1080.422 909.225 1036.088 898.483 1052.969 943.37"/></g><polygon class="cls-6" points="1494.317 583.853 1572.448 435.872 1408.74 568.305 1494.317 583.853"/><polygon class="cls-4" points="1408.74 568.305 1408.74 487.136 1572.448 435.872 1408.74 568.305"/><polygon class="cls-4" points="1281.317 868.696 1068.664 783.532 1369.078 783.532 1281.317 868.696"/><polygon class="cls-6" points="1028.386 982.756 835.986 934.339 883.98 1031.378 1028.386 982.756"/><polygon class="cls-4" points="835.986 934.339 932.186 884.932 1028.386 982.756 835.986 934.339"/><polygon class="cls-5" points="737.448 1040.302 786.566 993.962 818.807 1045.598 737.448 1040.302"/><polygon class="cls-5" points="1748.623 151.518 1786.137 163.526 1757.048 181.479 1748.623 151.518"/><polygon class="cls-6" points="1602.107 362.776 1570.424 409.293 1520.849 352.835 1602.107 362.776"/><polygon class="cls-6" points="1662.536 150.415 1683.35 208.413 1574.624 181.953 1662.536 150.415"/><polygon class="cls-4" points="665.446 980.6 692.708 993.962 671.901 1007.324 665.446 980.6"/><polygon class="cls-4" points="978.907 837.506 1001.141 858.101 985.788 864.181 978.907 837.506"/><polygon class="cls-4" points="1411.574 305.976 1444.589 305.741 1439.715 319.448 1411.574 305.976"/><polygon class="cls-4" points="1846.388 61.395 1869.224 54.825 1867.918 71.673 1846.388 61.395"/><polygon class="cls-4" points="1858.193 123.546 1868.138 147.472 1847.474 152.076 1858.193 123.546"/><polygon class="cls-5" points="1600.047 291.735 1624.172 292.013 1616.24 307.514 1600.047 291.735"/><polygon class="cls-4" points="1309.669 737.049 1281.498 715.17 1317.322 708.182 1309.669 737.049"/><polygon class="cls-4" points="1418.471 652.541 1429.598 615.183 1458.675 642.872 1418.471 652.541"/><polygon class="cls-4" points="1459.03 415.723 1420.308 395.32 1460.466 380.471 1459.03 415.723"/><polygon class="cls-6" points="1405.012 751.261 1391.085 715.846 1428.081 718.702 1405.012 751.261"/><polygon class="cls-6" points="745.518 957.326 757.602 911.352 789.789 951.998 745.518 957.326"/><polygon class="cls-6" points="1052.969 929.818 1036.088 884.932 1080.422 895.674 1052.969 929.818"/></g></g></svg>